<svg t="1709530012345" class="icon" viewBox="0 0 1024 1024" version="1.1" xmlns="http://www.w3.org/2000/svg" p-id="5286" width="32" height="32">
  <path d="M853.333333 938.666667H170.666667c-46.933333 0-85.333333-38.4-85.333334-85.333334V170.666667c0-46.933333 38.4-85.333333 85.333334-85.333334h682.666666c46.933333 0 85.333333 38.4 85.333334 85.333334v682.666666c0 46.933333-38.4 85.333333-85.333334 85.333334z" fill="#07C160" p-id="5287"></path>
  <path d="M512 298.666667c-23.466667 0-42.666667 19.2-42.666667 42.666666v256c0 23.466667 19.2 42.666667 42.666667 42.666667s42.666667-19.2 42.666667-42.666667V341.333333c0-23.466667-19.2-42.666667-42.666667-42.666666z" fill="#FFFFFF" p-id="5288"></path>
  <path d="M512 725.333333m-42.666667 0a42.666667 42.666667 0 1 0 85.333334 0 42.666667 42.666667 0 1 0-85.333334 0Z" fill="#FFFFFF" p-id="5289"></path>
</svg> 