<svg t="1709529985420" class="icon" viewBox="0 0 1024 1024" version="1.1" xmlns="http://www.w3.org/2000/svg" p-id="4286" width="32" height="32">
  <path d="M692.313043 347.269565c11.130435 0 22.26087 0 33.391305 2.226087C696.765217 204.8 540.93913 95.721739 362.852174 95.721739c-198.121739 0-360.626087 133.565217-360.626087 302.191304 0 97.947826 53.426087 178.643478 142.469565 242.086957l-35.617391 106.852174 124.434783-62.46087c44.521739 8.904348 80.139130 17.808696 124.434782 17.808696 11.130435 0 22.26087 0 33.391305-2.226087-6.678261-24.486957-11.130435-48.973913-11.130435-75.686956 0-155.826087 133.565217-276.478261 311.652174-276.478261z m-195.895652-97.947826c26.713043 0 44.521739 17.808696 44.521739 44.521739 0 26.713043-17.808696 44.521739-44.521739 44.521739-26.713043 0-53.426087-17.808696-53.426087-44.521739 0-26.713043 26.713043-44.521739 53.426087-44.521739zM298.165217 338.365217c-26.713043 0-53.426087-17.808696-53.426087-44.521739 0-26.713043 26.713043-44.521739 53.426087-44.521739 26.713043 0 44.521739 17.808696 44.521739 44.521739 0 26.713043-17.808696 44.521739-44.521739 44.521739z" fill="#ffffff" p-id="4287"></path>
  <path d="M1021.217391 629.982609c0-142.469565-142.469565-258.669565-302.747826-258.669565-169.73913 0-302.747826 116.2-302.747826 258.669565 0 142.469565 133.565217 258.669565 302.747826 258.669565 35.617391 0 71.234783-8.904348 106.852174-17.808696l97.947826 53.426087-26.713044-89.043478c71.234783-53.426087 124.66087-124.434783 124.66087-205.243478z m-403.921739-44.521739c-17.808696 0-35.617391-17.808696-35.617391-35.617391 0-17.808696 17.808696-35.617391 35.617391-35.617392 26.713043 0 44.521739 17.808696 44.521739 35.617392 0 17.808696-17.808696 35.617391-44.521739 35.617391z m195.895652 0c-17.808696 0-35.617391-17.808696-35.617391-35.617391 0-17.808696 17.808696-35.617391 35.617391-35.617392 26.713043 0 44.521739 17.808696 44.521739 35.617392 0 17.808696-17.808696 35.617391-44.521739 35.617391z" fill="#ffffff" p-id="4288"></path>
</svg> 